<svg id="Layer_1" height="512" viewBox="0 0 32 32" width="512" xmlns="http://www.w3.org/2000/svg"><g id="partners"><g id="partners_1_"><g><g fill="rgb(0,0,0)"><path d="m16.351 27.333c-.34 0-.679-.084-.979-.249l-.664-.359c-.243-.131-.333-.435-.201-.678.131-.243.435-.333.678-.201l.666.36c.236.129.532.161.792.085.151-.044.355-.144.477-.366.184-.336.118-.742-.052-.94-.167-.195-.159-.484.018-.67.155-.161.417-.223.614-.119l1.476.773c.452.246 1.016.101 1.242-.313.176-.323.084-.729-.058-.934l-1.366-.95c-.218-.152-.279-.448-.14-.674.139-.227.43-.304.665-.176l2.599 1.42c.241.132.466.109.612.065.229-.067.43-.232.55-.453.24-.438.113-.92-.3-1.146l-1.658-1.078c-.222-.145-.292-.437-.161-.667.131-.229.42-.318.656-.2l3.379 1.677c.429.233.939.064 1.182-.378.229-.423.061-.98-.37-1.215-.243-.132-.332-.436-.2-.678s.437-.333.678-.2c.906.494 1.258 1.672.77 2.572-.512.934-1.617 1.28-2.521.786l-.352-.174c.056.397-.022.81-.226 1.181-.246.452-.664.792-1.146.933-.464.136-.952.083-1.374-.147l-.13-.07c.019.327-.042.67-.214.985-.486.889-1.671 1.218-2.591.715l-.478-.25c-.016.278-.091.556-.227.804-.222.408-.603.708-1.073.847-.187.055-.38.082-.573.082z"/><path d="m6.008 18.264c-.076 0-.152-.017-.225-.054l-1.662-.838c-.247-.124-.346-.425-.221-.671.124-.247.424-.348.671-.221l1.662.838c.247.124.346.425.221.671-.087.174-.263.275-.446.275z"/><path d="m10 11.75c-.032 0-.065-.003-.098-.01l-3.394-.671c-.271-.054-.447-.316-.393-.587s.317-.451.587-.393l3.394.671c.271.054.447.316.393.587-.046.238-.255.403-.489.403z"/><path d="m26.234 20.002c-.083 0-.166-.021-.24-.062l-3.277-1.793-4.467-2.772c-.235-.145-.309-.452-.164-.688.144-.236.452-.309.688-.164l4.445 2.76 2.743 1.5c.172-.599.159-1.04.158-1.045-.009-.206.108-.396.296-.48l1.034-.46c.253-.11.549.002.66.254.112.252-.001.548-.254.66l-.748.333c-.028.365-.121.976-.415 1.656-.056.129-.164.229-.296.274-.053.018-.108.027-.163.027z"/><path d="m12.107 17.335c-.703 0-1.381-.306-1.935-.879-.127-.132-.172-.322-.118-.497.17-.547.354-1.058.524-1.531.274-.764.512-1.423.583-1.932.02-.141.098-.267.216-.346l.513-.35c1.157-.796 3.094-2.13 4.147-2.564.63-.259 3.96.383 6.642.969.071.015.138.046.195.09.114.086.219.175.318.266l1.917-.528c.266-.074.542.083.615.349s-.083.542-.349.615l-2.191.604c-.174.049-.361-.001-.489-.131-.105-.106-.217-.211-.341-.312-2.592-.563-5.502-1.077-5.968-.987-.923.383-2.879 1.73-3.93 2.453l-.343.234c-.109.558-.336 1.19-.594 1.909-.134.373-.277.77-.415 1.19.449.362.881.402 1.176.368.441-.053.851-.32 1.07-.695.172-.296.404-.885.563-1.433.055-.19.218-.33.415-.356.306-.041 1.523-.298 2.243-.469.268-.067.539.103.602.371.064.269-.102.538-.371.602-.547.13-1.479.333-2.021.434-.146.45-.355.992-.566 1.354-.378.65-1.057 1.093-1.813 1.185-.099.012-.197.017-.295.017z"/></g><g><g><path d="m13.654 27.267c-.444 0-.86-.173-1.172-.486l-.326-.329c-.31-.313-.479-.729-.478-1.17.001-.443.174-.857.487-1.167l.659-.648c.624-.618 1.719-.613 2.337.013l.324.325c.642.65.637 1.699-.009 2.339l-.659.648c-.31.305-.723.475-1.163.475zm.333-3.277c-.174 0-.338.067-.46.188l-.658.647c-.121.12-.189.284-.19.459 0 .176.066.34.188.463l.325.328c.243.245.676.246.923.002l.658-.647c.254-.251.255-.667.001-.923l-.323-.324c-.123-.125-.287-.193-.464-.193z" fill="rgb(0,0,0)"/></g><g><path d="m6.739 21.273c-.444 0-.861-.173-1.173-.487l-.325-.327c-.642-.649-.637-1.697.009-2.338l.659-.648c.624-.617 1.717-.614 2.336.011l.325.328c.31.313.479.728.477 1.171-.002.442-.176.856-.488 1.166l-.658.647c-.309.307-.722.477-1.162.477zm.333-3.277c-.174 0-.338.067-.461.188l-.658.647c-.254.252-.255.667-.002.923l.324.326c.245.247.677.248.923.004l.659-.648c.122-.12.189-.283.19-.458s-.065-.339-.187-.462l-.325-.328c-.122-.124-.286-.192-.463-.192z" fill="rgb(0,0,0)"/></g><g><path d="m8.457 23.887c-.445 0-.862-.173-1.173-.489l-.325-.327c-.31-.311-.48-.726-.479-1.167.001-.443.175-.858.489-1.169l1.309-1.299c.625-.62 1.716-.615 2.337.01l.325.329c.31.312.479.727.477 1.169-.002.443-.175.857-.489 1.167l-1.308 1.297c-.31.309-.724.479-1.163.479zm.984-3.929c-.174 0-.337.066-.459.188l-1.309 1.299c-.124.123-.192.287-.193.462 0 .174.066.337.188.459l.326.328c.244.248.676.247.922.004l1.309-1.298c.124-.122.192-.286.192-.461.001-.175-.065-.338-.187-.46l-.325-.329c-.123-.123-.288-.192-.464-.192z" fill="rgb(0,0,0)"/></g><g><g><path d="m11.056 25.577c-.445 0-.862-.174-1.174-.489l-.324-.328c-.31-.311-.48-.727-.479-1.168.001-.443.174-.857.487-1.167l.985-.973c.625-.619 1.718-.614 2.337.012l.324.327c.64.646.635 1.694-.009 2.336l-.984.973c-.31.307-.723.477-1.163.477zm.658-3.603c-.174 0-.337.067-.459.188l-.985.973c-.123.122-.19.285-.191.46s.066.338.188.46l.326.329c.244.248.676.248.922.005l.984-.973c.254-.253.256-.667.003-.923l-.324-.327c-.122-.124-.287-.192-.464-.192z" fill="rgb(0,0,0)"/></g></g></g><path d="m28.281 19.438c-.072 0-.145-.016-.211-.047-.122-.057-.216-.161-.26-.288l-3.228-9.221c-.088-.252.038-.53.286-.629l5.432-2.177c.257-.102.547.022.65.278s-.022.547-.278.65l-4.989 1.999 2.9 8.286 1.817-.685c.259-.097.547.033.644.292.098.258-.033.547-.292.644l-2.296.865c-.055.022-.115.033-.175.033z" fill="rgb(0,0,0)"/><path d="m3.469 19.406c-.053 0-.106-.008-.159-.026l-1.977-.662c-.262-.088-.403-.371-.315-.633s.373-.402.633-.315l1.509.505 2.91-8.312-4.708-1.984c-.255-.107-.374-.4-.267-.655.108-.254.401-.371.655-.266l5.14 2.167c.243.103.365.377.278.626l-3.228 9.221c-.071.205-.265.334-.471.334z" fill="rgb(0,0,0)"/></g></g></g></svg>