<?xml version="1.0" encoding="UTF-8" standalone="no"?>
<!-- Created with Inkscape (http://www.inkscape.org/) -->

<svg
   version="1.1"
   id="svg81"
   xml:space="preserve"
   width="682.66669"
   height="682.66669"
   viewBox="0 0 682.66669 682.66669"
   xmlns="http://www.w3.org/2000/svg"
   xmlns:svg="http://www.w3.org/2000/svg"><defs
     id="defs85"><clipPath
       clipPathUnits="userSpaceOnUse"
       id="clipPath95"><path
         d="M 0,512 H 512 V 0 H 0 Z"
         id="path93" /></clipPath></defs><g
     id="g87"
     transform="matrix(1.3333333,0,0,-1.3333333,0,682.66667)"><g
       id="g89"><g
         id="g91"
         clip-path="url(#clipPath95)"><g
           id="g97"
           transform="translate(157.1343,326.082)"><path
             d="M 0,0 C -26.563,0 -48.097,21.534 -48.097,48.097 -48.097,21.534 -69.63,0 -96.193,0 -69.63,0 -48.097,-21.533 -48.097,-48.097 -48.097,-21.533 -26.563,0 0,0 Z"
             style="fill:none;stroke:#000000;stroke-width:15;stroke-linecap:round;stroke-linejoin:round;stroke-miterlimit:10;stroke-dasharray:none;stroke-opacity:1"
             id="path99" /></g><g
           id="g101"
           transform="translate(404.3496,78.0713)"><path
             d="m 0,0 11.375,-35.008 c 5.541,-17.054 -13.979,-31.236 -28.486,-20.696 l -131.239,95.35 -131.238,-95.35 c -14.507,-10.54 -34.027,3.642 -28.486,20.696 l 50.129,154.28 -131.239,95.35 c -14.507,10.541 -7.051,33.488 10.881,33.488 h 2.83"
             style="fill:none;stroke:#000000;stroke-width:15;stroke-linecap:round;stroke-linejoin:round;stroke-miterlimit:10;stroke-dasharray:none;stroke-opacity:1"
             id="path103" /></g><g
           id="g105"
           transform="translate(188.2661,326.1809)"><path
             d="m 0,0 50.128,154.28 c 5.542,17.054 29.67,17.054 35.211,0 L 135.468,0 h 162.219 c 17.933,0 25.388,-22.947 10.881,-33.487 l -131.238,-95.35 8.095,-24.917"
             style="fill:none;stroke:#000000;stroke-width:15;stroke-linecap:round;stroke-linejoin:round;stroke-miterlimit:10;stroke-dasharray:none;stroke-opacity:1"
             id="path107" /></g><g
           id="g109"
           transform="translate(258.6108,278.5342)"><path
             d="M 0,0 V -80.543"
             style="fill:none;stroke:#000000;stroke-width:15;stroke-linecap:round;stroke-linejoin:round;stroke-miterlimit:10;stroke-dasharray:none;stroke-opacity:1"
             id="path111" /></g><g
           id="g113"
           transform="translate(168.6812,278.5342)"><path
             d="m 0,0 27.538,-79.334 c 0.577,-1.624 2.879,-1.608 3.434,0.023 L 57.27,-0.148"
             style="fill:none;stroke:#000000;stroke-width:15;stroke-linecap:round;stroke-linejoin:round;stroke-miterlimit:10;stroke-dasharray:none;stroke-opacity:1"
             id="path115" /></g><g
           id="g117"
           transform="translate(295.9043,278.5342)"><path
             d="M 0,0 V -80.543"
             style="fill:none;stroke:#000000;stroke-width:15;stroke-linecap:round;stroke-linejoin:round;stroke-miterlimit:10;stroke-dasharray:none;stroke-opacity:1"
             id="path119" /></g><g
           id="g121"
           transform="translate(341.5054,255.8049)"><path
             d="m 0,0 c 0,-12.553 -10.622,-22.729 -23.174,-22.729 -6.226,0 -22.271,-0.101 -22.271,-0.101 0,0 -0.1,16.502 -0.1,22.83 0,5.197 -0.056,22.729 -0.056,22.729 h 22.427 C -10.622,22.729 0,12.553 0,0 Z"
             style="fill:none;stroke:#000000;stroke-width:15;stroke-linecap:round;stroke-linejoin:round;stroke-miterlimit:10;stroke-dasharray:none;stroke-opacity:1"
             id="path123" /></g><g
           id="g125"
           transform="translate(417.7275,112.1067)"><path
             d="M 0,0 C -16.456,7.311 -23.868,26.578 -16.557,43.033 -23.868,26.578 -43.135,19.165 -59.591,26.476 -43.135,19.165 -35.722,-0.102 -43.034,-16.557 -35.722,-0.102 -16.456,7.311 0,0 Z"
             style="fill:none;stroke:#000000;stroke-width:15;stroke-linecap:round;stroke-linejoin:round;stroke-miterlimit:10;stroke-dasharray:none;stroke-opacity:1"
             id="path127" /></g></g></g></g></svg>
