<?xml version="1.0" encoding="utf-8"?>
<!-- Generator: Adobe Illustrator 27.6.1, SVG Export Plug-In . SVG Version: 6.00 Build 0)  -->
<svg version="1.1" id="Layer_1" xmlns="http://www.w3.org/2000/svg" xmlns:xlink="http://www.w3.org/1999/xlink" x="0px" y="0px"
	 viewBox="0 0 492.8 492.8" style="enable-background:new 0 0 492.8 492.8;" xml:space="preserve">
<style type="text/css">
	.st0{fill:#333333;}
</style>
<path class="st0" d="M184.8,0c27.6,0,51.7,15.5,64.1,38.1c12.3-16.3,31.7-26.9,53.6-26.9c37,0,67.2,30.2,67.2,67.2
	c0,17.2-6.6,32.9-17.3,44.8h129.3c5.9,0,11.2,5.3,11.2,11.2v100.8c0,5.9-5.3,11.2-11.2,11.2h-22.4v235.2c0,5.9-5.3,11.2-11.2,11.2
	H44.8c-5.9,0-11.2-5.3-11.2-11.2V246.4H11.2c-5.9,0-11.2-5.3-11.2-11.2V134.4c0-5.9,5.3-11.2,11.2-11.2h121.1
	C119.7,110.1,112,92.3,112,72.8C112,32.7,144.7,0,184.8,0L184.8,0z M184.8,22.4c-28,0-50.4,22.4-50.4,50.4s22.4,50.4,50.4,50.4h50.4
	V72.8C235.2,44.8,212.8,22.4,184.8,22.4z M302.4,33.6c-24.9,0-44.8,19.9-44.8,44.8v44.8h44.8c24.9,0,44.8-19.9,44.8-44.8
	S327.3,33.6,302.4,33.6z M470.4,145.6h-168V224h168V145.6z M280,145.6h-67.2V224H280V145.6z M190.4,145.6h-168V224h168V145.6z
	 M436.8,246.4H302.4v224h134.4V246.4z M280,246.4h-67.2v224H280V246.4z M190.4,246.4H56v224h134.4V246.4z"/>
</svg>
