<svg id="Layer_1" data-name="Layer 1" xmlns="http://www.w3.org/2000/svg" viewBox="0 0 1536 1536">
<defs><style>.base{isolation:isolate;}.circle{fill:#9CDABC;}.shape{fill:#fff;}</style></defs>
<g class="base">
<rect class="circle" width="1536" height="1536" rx="768"/>
<path class="shape" d="M850.91,455.26c-255.8,0-273.56,256.57-273.56,256.57h8.37s46.81-183.9,221.78-183.9c141.34,0,249.84,98.79,249.84,237.17.77,160.46-128.69,291.17-289.15,291.94H768c-152.68,0-296.94-118.22-296.94-324.23,0-161.14,88.51-293.33,233.69-350.28l-2-8.61c-216,38.06-360.22,244-322.16,460C413.8,1022.35,576.67,1160.32,768,1162.08c218.24-.92,394.41-178.58,393.49-396.82v0c0-211.57-179.22-310-310.58-310"/>
</g></svg>