<svg xmlns="http://www.w3.org/2000/svg" xmlns:xlink="http://www.w3.org/1999/xlink" viewBox="0 0 1536 1536">
<defs><style>.base{isolation:isolate;}.circle{fill:#9CDABC;}.shape{fill:#fff;}</style></defs>
<g class="base">
<rect class="circle" width="1536" height="1536" rx="768"/>
<path class="shape" d="M770.85,1124A48.18,48.18,0,1,0,819,1172.11,48.18,48.18,0,0,0,770.85,1124"/>
<path class="shape" d="M707.05,988.28l-.16.32L619.2,1180c-2.94,6.47,5.36,12.16,10.28,7.06L768,1034.75a6.32,6.32,0,0,1,9.07,0l139.16,151.12c5,5.06,13.22-.66,10.21-7.12L837.21,988.64l-.14-.32L777.33,838.73a6.32,6.32,0,0,0-11.74,0Z"/>
<path class="shape" d="M426.62,988a48.19,48.19,0,1,0,67.76,7.37A48.25,48.25,0,0,0,426.62,988"/>
<path class="shape" d="M545.89,1147,638.1,958.37a2.39,2.39,0,0,0,.16-.32l79.1-140.31a6.3,6.3,0,0,0-7.39-9.1L556.8,856.75a3.19,3.19,0,0,0-.35.1L352.33,908.48c-6.9,1.75-6.1,11.74,1,12.41l205.45,12.46a6.28,6.28,0,0,1,5.7,7L534,1143.52c-.85,7,8.78,9.9,11.93,3.5"/>
<path class="shape" d="M375.32,736.21a48.17,48.17,0,1,0-36.78-57.36,48.19,48.19,0,0,0,36.78,57.36"/>
<path class="shape" d="M336.74,836.33,541.5,789.74a1.09,1.09,0,0,1,.34-.07L700.72,763.2a6.32,6.32,0,0,0,2.46-11.5L569.6,662.65a1.17,1.17,0,0,0-.29-.2L401,536c-5.67-4.26-13,2.61-9.06,8.54l119.3,167.77a6.36,6.36,0,0,1-1.93,8.85L332,824.84c-6,3.76-2.16,13.07,4.76,11.49"/>
<path class="shape" d="M601.73,448.17a48.19,48.19,0,1,0-64.57-21.7,48.2,48.2,0,0,0,64.57,21.7"/>
<path class="shape" d="M607.29,592.41a2.83,2.83,0,0,1,.28.23L727.69,699.93a6.32,6.32,0,0,0,10.51-5.26L724,534.73a1.72,1.72,0,0,1,0-.32l-6.82-210.47c-.22-7.1-10.16-8.48-12.31-1.68l-56.13,198a6.23,6.23,0,0,1-8.07,4L448.74,451.05c-6.7-2.31-11.58,6.5-6,10.92Z"/>
<path class="shape" d="M923.53,448.37A48.17,48.17,0,1,0,901.25,384a48.26,48.26,0,0,0,22.28,64.4"/>
<path class="shape" d="M806.82,700,924.77,591.07a2.68,2.68,0,0,0,.26-.23l162.48-134c5.47-4.52.49-13.26-6.2-10.78L890.24,522.66a6.36,6.36,0,0,1-8.16-3.95L822.89,322c-2.26-6.72-12.21-5.16-12.29,2l-2.8,210v.37L796.23,694.9A6.32,6.32,0,0,0,806.82,700"/>
<path class="shape" d="M1141.17,642.11a48.19,48.19,0,1,0,57.47,36.59,48.16,48.16,0,0,0-57.47-36.59"/>
<path class="shape" d="M1206,824.43,1027.3,722.19a6.27,6.27,0,0,1-2-8.82l117.41-168.56c3.88-6-3.5-12.78-9.13-8.46L967.29,664.6a2.82,2.82,0,0,1-.29.18L833.93,755.5a6.3,6.3,0,0,0,2.56,11.44l158.65,24.8a.85.85,0,0,0,.33,0L1201.36,836c6.91,1.5,10.65-7.82,4.6-11.55"/>
<path class="shape" d="M1058.75,1063.52a48.17,48.17,0,1,0-8.33-67.62,48.16,48.16,0,0,0,8.33,67.62"/>
<path class="shape" d="M1192.87,902.16,988.12,855.57a2.1,2.1,0,0,0-.33-.09l-154.68-44.9a6.31,6.31,0,0,0-7.19,9.29L907.77,958a2,2,0,0,1,.18.31l97,186.89c3.28,6.31,12.85,3.24,11.87-3.75L981.9,938.5a6.26,6.26,0,0,1,5.53-7.12l204.77-16.76c7-.83,7.58-10.86.67-12.46"/>
</g></svg>